# AST/ASF file generated using VICON BodyLanguage
# -----------------------------------------------
:version 1.10
:name VICON
:units
  mass 1.0
  length 0.45
  angle deg
:documentation
   .ast/.asf automatically generated from VICON data using
   VICON BodyBuilder and BodyLanguage model FoxedUp or BRILLIANT.MOD
:root
   order TX TY TZ RX RY RZ
   axis XYZ
   position 0 0 0  
   orientation 0 0 0 
:bonedata
  begin
     id 1 
     name lhipjoint
     direction 0.602128 -0.715006 0.355257 
     length 2.21237 
     axis 0 0 0  XYZ
  end
  begin
     id 2 
     name lfemur
     direction 0.34202 -0.939693 0  
     length 6.71649  
     axis 0 0 20  XYZ
    dof rx ry rz
    limits (-160.0 20.0)
           (-70.0 70.0)
           (-60.0 70.0)
  end
  begin
     id 3 
     name ltibia
     direction 0.34202 -0.939693 0   
     length 6.97123   
     axis 0 0 20   XYZ
    dof rx
    limits (-10.0 170.0)
  end
  begin
     id 4 
     name lfoot
     direction 0.0655697 -0.180151 0.981451   
     length 1.80924   
     axis -90 7.62852e-016 20   XYZ
    dof rx rz
    limits (-45.0 90.0)
           (-70.0 20.0)
  end
  begin
     id 5 
     name ltoes
     direction 1.53545e-011 -4.21827e-011 1   
     length 0.916331   
     axis -90 7.62852e-016 20   XYZ
    dof rx
    limits (-90.0 20.0)
  end
  begin
     id 6 
     name rhipjoint
     direction -0.625414 -0.698792 0.347201   
     length 2.2637  
     axis 0 0 0  XYZ 
  end
  begin
     id 7 
     name rfemur
     direction -0.34202 -0.939693 0   
     length 7.07595   
     axis 0 0 -20   XYZ
    dof rx ry rz
    limits (-160.0 20.0)
           (-70.0 70.0)
           (-70.0 60.0)
  end
  begin
     id 8 
     name rtibia
     direction -0.34202 -0.939693 0   
     length 7.22924   
     axis 0 0 -20   XYZ
    dof rx
    limits (-10.0 170.0)
 end
 begin
     id 9 
     name rfoot
     direction -0.0766747 -0.210662 0.974547   
     length 1.98482  
     axis -90 -7.62852e-016 -20   XYZ
    dof rx rz
    limits (-45.0 90.0)
           (-20.0 70.0)
  end
  begin
     id 10 
     name rtoes
     direction -1.53532e-011 -4.21867e-011 1   
     length 0.999842   
     axis -90 -7.62852e-016 -20   XYZ
    dof rx
    limits (-90.0 20.0)
  end
  begin
     id 11 
     name lowerback
     direction -0.0224668 0.997354 -0.0691422   
     length 2.09945   
     axis 0 0 0   XYZ
    dof rx ry rz
    limits (-20.0 45.0)
           (-30.0 30.0)
           (-30.0 30.0)
  end
  begin
     id 12 
     name upperback
     direction 0.0134698 0.998451 -0.0539888   
     length 2.09758   
     axis 0 0 0   XYZ
    dof rx ry rz
    limits (-20.0 45.0)
           (-30.0 30.0)
           (-30.0 30.0)
  end
  begin
     id 13 
     name thorax
     direction 0.0241905 0.99948 -0.0213333   
     length 2.10428   
     axis 0 0 0   XYZ
    dof rx ry rz
    limits (-20.0 45.0)
           (-30.0 30.0)
           (-30.0 30.0)
  end
  begin
     id 14 
     name lowerneck
     direction -0.00866847 0.995978 0.0891737   
     length 1.3959   
     axis 0 0 0   XYZ
    dof rx ry rz
    limits (-20.0 45.0)
           (-30.0 30.0)
           (-30.0 30.0)
  end
  begin
     id 15 
     name upperneck
     direction 0.0680679 0.992203 0.104404   
     length 1.39452   
     axis 0 0 0   XYZ
    dof rx ry rz
    limits (-20.0 45.0)
           (-30.0 30.0)
           (-30.0 30.0)
  end
  begin
     id 16
     name head
     direction 0.0242216 0.999358 0.0264054  
     length 1.40433  
     axis 0 0 0   XYZ
    dof rx ry rz
    limits (-20.0 45.0)
           (-30.0 30.0)
           (-30.0 30.0)
  end
  begin
     id 17 
     name lclavicle
     direction 0.929368 0.362991 -0.0671771  
     length 3.04887  
     axis 0 0 0   XYZ
    dof ry rz
    limits (-20.0 10.0)
           (0.0 20.0)
  end
  begin
     id 18 
     name lhumerus
     direction 1 -4.48967e-011 -7.13741e-028   
     length 4.77195   
     axis -180 -30 -90   XYZ
    dof rx ry rz
    limits (-60.0 90.0)
           (-90.0 90.0)
           (-90.0 90.0)
  end
  begin
     id 19
     name lradius
     direction 1 -4.48977e-011 3.60404e-027   
     length 2.98444   
     axis -180 -30 -90   XYZ
    dof rx
    limits (-10.0 170.0)
  end
  begin
     id 20
     name lwrist
     direction 1 -4.48997e-011 7.54877e-027   
     length 1.49222   
     axis -7.18178e-015 90 90   XYZ
    dof ry
    limits (-180.0 0.0)
 end
  begin
     id 21 
     name lhand
     direction 1 -4.489e-011 1.51105e-026   
     length 0.992285   
     axis -9.63605e-015 90 90   XYZ
    dof rx rz
    limits (-90.0 90.0)
           (-45.0 45.0)
  end
  begin
     id 22 
     name lfingers
     direction 1 -4.48998e-011 3.01948e-026   
     length 0.800006   
     axis -1.92718e-014 90 90   XYZ
    dof rx
    limits (0.0 90.0)
  end
  begin
     id 23
     name lthumb
     direction 0.707107 -6.34881e-011 0.707107   
     length 1.14865   
     axis -90 45 -3.53137e-014   XYZ
    dof rx rz
    limits (-45.0 45.0)
           (-45.0 45.0)
  end
  begin
     id 24 
     name rclavicle
     direction -0.945672 0.324529 0.0196374   
     length 3.4236  
     axis 0 0 0   XYZ 
    dof ry rz
    limits (-10.0 20.0)
           (-20.0 0.0)
  end
  begin
     id 25 
     name rhumerus
     direction -1 -4.4896e-011 1.02757e-029  
     length 4.62052   
     axis -180 30 90   XYZ
    dof rx ry rz
    limits (-90.0 60.0)
           (-90.0 90.0)
           (-90.0 90.0)
  end
  begin
     id 26 
     name rradius
     direction -1 -4.48982e-011 3.85962e-027   
     length 2.95332   
     axis -180 30 90   XYZ
    dof rx
    limits (-10.0 170.0)
  end
  begin
     id 27 
     name rwrist
     direction -1 -4.48961e-011 7.55118e-027   
     length 1.47666   
     axis -7.18178e-015 -90 -90   XYZ
    dof ry
    limits (-180.0 0.0)
  end
  begin
     id 28
     name rhand
     direction -1 -4.48984e-011 1.50994e-026   
     length 0.990956   
     axis -9.63605e-015 -90 -90   XYZ
    dof rx rz
    limits (-90.0 90.0)
           (-45.0 45.0)
  end
  begin
     id 29
     name rfingers
     direction -1 -4.4892e-011 3.02158e-026   
     length 0.798934   
     axis -1.92718e-014 -90 -90   XYZ
    dof rx
    limits (0.0 90.0)
  end
  begin
     id 30
     name rthumb
     direction -0.707107 -6.34916e-011 0.707107   
     length 1.14711   
     axis -90 -45 3.53137e-014   XYZ
    dof rx rz
    limits (-45.0 45.0)
           (-45.0 45.0)
  end
:hierarchy
  begin
    root lhipjoint rhipjoint lowerback
    lhipjoint lfemur
    lfemur ltibia
    ltibia lfoot
    lfoot ltoes
    rhipjoint rfemur
    rfemur rtibia
    rtibia rfoot
    rfoot rtoes
    lowerback upperback
    upperback thorax
    thorax lowerneck lclavicle rclavicle
    lowerneck upperneck
    upperneck head
    lclavicle lhumerus
    lhumerus lradius
    lradius lwrist
    lwrist lhand lthumb
    lhand lfingers
    rclavicle rhumerus
    rhumerus rradius
    rradius rwrist
    rwrist rhand rthumb
    rhand rfingers
  end

#!OML:ASF H:\ManfredObstacles\Project 1\Capture day 1\Session 1\Male.ASF
:FULLY-SPECIFIED
:DEGREES
570
root -1.32653 9.3355 -1.04164 -144.12 -5.81502 -192.114
lowerback 31.2092 2.72855 -1.49392
upperback 15.8038 -1.08885 -2.53444
thorax 0.837109 -1.95394 -1.65474
lowerneck 5.36545 -4.07526 -1.40165
upperneck -25.9091 -4.36387 12.07
head -8.58637 -3.93537 4.85923
rclavicle -6.20208e-014 -4.4329e-014
rhumerus 47.0972 -14.3226 -102.038
rradius 17.0562
rwrist 58.2052
rhand -56.6377 6.48012
rfingers 7.12502
rthumb -28.9455 -21.293
lclavicle -6.20208e-014 -4.4329e-014
lhumerus 42.9873 -15.3646 66.871
lradius 28.8549
lwrist -13.1023
lhand -13.1777 1.68968
lfingers 7.12502
lthumb 12.9219 31.2696
rfemur -58.9698 -21.9473 21.3519
rtibia 130.804
rfoot 156.601 -164.439
rtoes 18.7712
lfemur -121.135 -4.31652 -27.4525
ltibia 116.253
lfoot -17.8671 -15.9401
ltoes 15.9573
571
root -1.39923 9.31663 -0.998049 -144.533 -5.90005 -191.109
lowerback 30.6298 2.69991 -0.74213
upperback 15.7278 -0.834046 -2.3843
thorax 1.01059 -1.76763 -1.99631
lowerneck 5.29754 -4.04002 -1.34889
upperneck -25.8294 -4.36991 11.8608
head -8.55408 -3.91633 4.7707
rclavicle -1.43125e-014 -1.03368e-014
rhumerus 47.5933 -15.5028 -103.113
rradius 16.2533
rwrist 59.6357
rhand -54.7435 5.45865
rfingers 7.12502
rthumb -27.1348 -22.6108
lclavicle -1.43125e-014 -1.03368e-014
lhumerus 42.7774 -15.3119 67.1512
lradius 28.8437
lwrist -13.2427
lhand -12.5756 2.02758
lfingers 7.12502
lthumb 13.5023 31.5699
rfemur -58.9053 -21.4669 22.0364
rtibia 131.067
rfoot 156.794 -164.775
rtoes 19.3862
lfemur -120.997 -4.43211 -27.1654
ltibia 115.871
lfoot -16.7483 -14.8031
ltoes 23.0607
572
root -1.46964 9.30365 -0.956292 -144.917 -5.61404 -190.565
lowerback 30.182 2.80714 -0.627624
upperback 15.5599 -0.58104 -2.35962
thorax 1.01887 -1.61619 -2.10409
lowerneck 5.42232 -4.02612 -1.23533
upperneck -25.7839 -4.37162 11.7004
head -8.57095 -3.90639 4.69808
rclavicle 1.11319e-014 2.127e-014
rhumerus 47.9451 -16.7885 -104.238
rradius 15.5945
rwrist 61.1434
rhand -52.3028 4.74067
rfingers 7.12502
rthumb -24.7977 -23.6716
lclavicle 1.11319e-014 2.127e-014
lhumerus 42.396 -15.3165 67.4186
lradius 28.8363
lwrist -13.5469
lhand -12.3614 2.39174
lfingers 7.12502
lthumb 13.7087 31.9202
rfemur -58.8794 -21.196 21.9945
rtibia 131.423
rfoot 156.869 -164.9
rtoes 21.1604
lfemur -120.672 -4.42521 -27.1974
ltibia 115.975
lfoot -17.577 -14.1569
ltoes 24.2548
573
root -1.53169 9.28251 -0.9151 -145.167 -4.99991 -190.135
lowerback 29.4114 3.13336 -1.13181
upperback 15.4557 -0.205036 -2.32062
thorax 1.23885 -1.44735 -1.87885
lowerneck 5.53731 -3.96558 -1.25567
upperneck -25.8147 -4.29346 11.7229
head -8.60781 -3.87524 4.71072
rclavicle -3.18055e-015 2.76311e-014
rhumerus 48.2756 -17.7767 -105.07
rradius 15.0772
rwrist 62.268
rhand -49.6712 4.1805
rfingers 7.12502
rthumb -22.2735 -24.5559
lclavicle -3.18055e-015 2.76311e-014
lhumerus 41.9975 -15.1624 67.6422
lradius 28.9181
lwrist -14.1285
lhand -12.5747 2.46197
lfingers 7.12502
lthumb 13.5032 32.0042
rfemur -58.9875 -20.3531 21.8994
rtibia 131.815
rfoot 156.688 -165.296
rtoes 22.5053
lfemur -120.605 -3.98934 -27.2027
ltibia 116.355
lfoot -18.4628 -14.0707
ltoes 17.7368
574
root -1.6191 9.27686 -0.873556 -145.883 -4.73744 -189.746
lowerback 29.4254 3.19718 -1.07286
upperback 15.3197 -0.0869491 -2.2607
thorax 1.07883 -1.38592 -1.87406
lowerneck 5.63944 -3.91656 -1.36959
upperneck -25.7635 -4.22829 11.8222
head -8.60725 -3.84326 4.76043
rclavicle -1.59028e-015 9.93923e-015
rhumerus 48.1811 -18.3126 -105.098
rradius 14.7899
rwrist 62.6972
rhand -46.9678 3.811
rfingers 7.12502
rthumb -19.6763 -25.2132
lclavicle -1.59028e-015 9.93923e-015
lhumerus 41.431 -14.9861 67.9207
lradius 28.964
lwrist -15.0282
lhand -13.0845 2.25202
lfingers 7.12502
lthumb 13.0117 31.8262
rfemur -58.4236 -20.5524 21.2098
rtibia 132.029
rfoot 156.832 -164.99
rtoes 22.3827
lfemur -120.049 -4.13584 -26.8979
ltibia 116.575
lfoot -19.0185 -13.6314
ltoes 16.2096
575
root -1.70282 9.27687 -0.840102 -146.565 -4.421 -189.222
lowerback 29.3397 3.3499 -1.10615
upperback 15.1768 0.137691 -2.12137
thorax 0.955306 -1.27778 -1.7589
lowerneck 5.62775 -3.90601 -1.53553
upperneck -25.6165 -4.21571 11.9897
head -8.54426 -3.83187 4.83537
rclavicle 1.11319e-014 -4.96962e-015
rhumerus 47.6833 -18.2338 -104.097
rradius 14.8113
rwrist 62.2575
rhand -44.0125 3.5122
rfingers 7.12502
rthumb -16.8332 -25.7782
lclavicle 1.11319e-014 -4.96962e-015
lhumerus 40.8314 -14.7288 68.4566
lradius 28.9167
lwrist -16.0988
lhand -13.6611 2.05539
lfingers 7.12502
lthumb 12.4559 31.6642
rfemur -57.9085 -20.3298 20.6405
rtibia 132.141
rfoot 157.317 -164.595
rtoes 22.8261
lfemur -119.752 -4.07565 -26.6002
ltibia 116.791
lfoot -19.0985 -13.3185
ltoes 19.3786
